<?xml version="1.0" encoding="UTF-8"?>
<svg id="Layer_1" xmlns="http://www.w3.org/2000/svg" version="1.1" viewBox="0 0 121 44">
  <!-- Generator: Adobe Illustrator 29.6.1, SVG Export Plug-In . SVG Version: 2.1.1 Build 9)  -->
  <defs>
    <style>
      .st0 {
        fill: #ff5c54;
      }
    </style>
  </defs>
  <rect class="st0" x="5.86" y="5.85" width="6.52" height="26.87" rx="3.26" ry="3.26"/>
  <rect class="st0" x="6.04" y="26.8" width="21.39" height="6" rx="3" ry="3"/>
  <g>
    <path class="st0" d="M28.58,20.5c.09,3.47.16,6.95.25,10.42.03,1.2,1.89,1.2,1.86,0-.09-3.47-.16-6.95-.25-10.42-.03-1.2-1.89-1.2-1.86,0Z"/>
    <path class="st0" d="M30.59,15.78c-.92-1.55-3.14.15-1.94,1.45.96,1.01,2.67-.23,1.94-1.45Z"/>
  </g>
  <path class="st0" d="M31.87,24.54c.52-.03,1.05-.04,1.57-.05.12,2.12.32,4.23.52,6.34.11,1.18,1.98,1.2,1.86,0-.2-2.12-.4-4.24-.52-6.37.46,0,.92-.02,1.37-.03,1.2-.04,1.2-1.9,0-1.86-.49.02-.97.03-1.46.03.02-1.77-.35-3.78.46-5.44,1.06-1.97,2.44.17,2.6,1.49.33,1.15,2.13.66,1.8-.5-.92-4.51-5.56-5.12-6.56-.31-.3,1.55-.25,3.19-.17,4.78-.49.01-.98.03-1.46.05-1.19.06-1.2,1.92,0,1.86Z"/>
  <path class="st0" d="M41.92,31.17c2.27.75,5.23-.18,6.3-2.42.52-1.08-1.09-2.02-1.61-.94-1.7,3.21-6.62,1.7-6.44-1.9,2.36.05,4.73.11,7.09.14.53,0,.89-.44.93-.93.15-1.91-.57-3.99-2.22-5.08-6.84-3.69-10.99,8.93-4.05,11.13ZM40.48,23.89c1.11-3.38,5.49-3.74,5.83.28-1.96-.03-3.92-.08-5.89-.12.02-.05.03-.11.05-.16Z"/>
  <g>
    <path class="st0" d="M55.43,19.95c.09,3.47.16,6.95.25,10.42.03,1.2,1.89,1.2,1.86,0-.09-3.47-.16-6.95-.25-10.42-.03-1.2-1.89-1.2-1.86,0Z"/>
    <path class="st0" d="M57.27,15.15c-.92-1.55-3.14.15-1.94,1.45.96,1.01,2.67-.23,1.94-1.45Z"/>
  </g>
  <path class="st0" d="M60.07,20.83c.35-2.57-1.82-2.35-1.88-1.07.04,3.49.18,6.98.25,10.48.03,1.2,1.89,1.2,1.86,0-.04-1.92-.1-3.85-.15-5.77.44-1.86,2.79-4.94,4.7-2.89,1.32,2.55.81,5.73.9,8.51-.02,1.2,1.84,1.2,1.86,0,.04-2.13.06-4.26-.24-6.37-.15-4.38-4.37-6.44-7.31-2.89Z"/>
  <path class="st0" d="M73.91,30.77c1.41-3.56,2.81-7.12,4.22-10.68.44-1.12-1.36-1.6-1.8-.5-1.14,2.88-2.27,5.76-3.41,8.63-1.39-2.84-2.79-5.68-4.18-8.52-.53-1.08-2.14-.13-1.61.94,1.64,3.34,3.28,6.68,4.91,10.01"/>
  <path class="st0" d="M80.31,31.47c2.32,1.04,4.81.18,6.42-1.6.02.38.05.76.06,1.14.06,1.19,1.92,1.2,1.86,0-.17-3.38-.43-6.76-.69-10.13-.28-1.5-2.3-.97-1.83.47-6.77-5.21-13.22,6.57-5.83,10.12ZM79.2,24.36c2.39-5.08,9.23-1.13,6.67,3.59-2.75,4.46-8.55,1.04-6.67-3.59Z"/>
  <path class="st0" d="M91.76,31.07c2.23,1.22,4.71.56,6.47-1.03-.02.42-.03.83-.05,1.25-.06,1.2,1.81,1.2,1.86,0,.28-6.07.19-12.15.3-18.22.02-1.2-1.84-1.2-1.86,0-.05,2.79-.06,5.59-.08,8.39-6.27-5.78-13.73,5.51-6.64,9.61ZM91.32,23.76c2.99-4.76,9.28-.03,6.19,4.38-3.23,4.11-8.61-.04-6.19-4.38Z"/>
  <path class="st0" d="M104.21,31.74c2.27.75,5.23-.18,6.3-2.42.52-1.08-1.09-2.02-1.61-.94-1.7,3.21-6.62,1.7-6.44-1.9,2.36.05,4.73.11,7.09.14.53,0,.89-.44.93-.93.15-1.91-.57-3.99-2.22-5.08-6.84-3.69-10.99,8.93-4.05,11.13ZM102.78,24.46c1.11-3.38,5.49-3.74,5.83.28-1.96-.03-3.92-.08-5.89-.12.02-.05.03-.11.05-.16Z"/>
  <path class="st0" d="M114.31,24.1c.17-1.82,1.92-3.73,3.41-1.79.57,1.05,2.18.12,1.61-.94-1.28-2.37-5.02-2.18-6.11.27-.03-.59-.07-1.17-.1-1.76-.06-1.19-1.92-1.2-1.86,0,.19,3.75.47,7.5.78,11.25.1,1.18,1.95,1.2,1.86,0-.07-2.34.03-4.72.41-7.04Z"/>
</svg>