<?xml version="1.0" encoding="UTF-8"?>
<svg id="Layer_1" xmlns="http://www.w3.org/2000/svg" version="1.1" viewBox="0 0 121 44">
  <!-- Generator: Adobe Illustrator 29.6.1, SVG Export Plug-In . SVG Version: 2.1.1 Build 9)  -->
  <defs>
    <style>
      .st0 {
        fill: none;
      }

      .st1 {
        fill: #ff5c54;
      }
    </style>
  </defs>
  <g>
    <path class="st1" d="M16.96,21.16c.1,3.82.18,7.65.27,11.46.03,1.32,2.08,1.32,2.05,0-.1-3.82-.18-7.64-.27-11.46-.03-1.32-2.08-1.32-2.05,0Z"/>
    <path class="st1" d="M19.17,15.97c-1.01-1.71-3.45.16-2.13,1.59,1.06,1.11,2.94-.25,2.13-1.59Z"/>
  </g>
  <path class="st1" d="M20.58,25.61c.57-.03,1.16-.04,1.73-.05.13,2.33.35,4.65.57,6.97.12,1.3,2.18,1.32,2.05,0-.22-2.33-.44-4.66-.57-7.01.51,0,1.01-.02,1.51-.03,1.32-.04,1.32-2.09,0-2.05-.54.02-1.07.03-1.61.03.02-1.95-.38-4.16.51-5.98,1.17-2.17,2.68.19,2.86,1.64.36,1.26,2.34.73,1.98-.55-1.01-4.96-6.12-5.63-7.22-.34-.33,1.7-.27,3.51-.19,5.26-.54.01-1.08.03-1.61.05-1.31.07-1.32,2.11,0,2.05h-.01Z"/>
  <path class="st1" d="M31.63,32.9c2.5.82,5.75-.2,6.93-2.66.57-1.19-1.2-2.22-1.77-1.03-1.87,3.53-7.28,1.87-7.08-2.09,2.6.05,5.2.12,7.8.15.58,0,.98-.48,1.02-1.02.17-2.1-.63-4.39-2.44-5.59-7.52-4.06-12.09,9.82-4.45,12.24ZM30.05,24.89c1.22-3.72,6.04-4.11,6.41.31-2.16-.03-4.31-.09-6.48-.13.02-.05.03-.12.05-.18h.01Z"/>
  <g>
    <path class="st1" d="M49.94,19.7c.1,3.82.18,7.65.27,11.46.03,1.32,2.08,1.32,2.05,0-.1-3.82-.18-7.64-.27-11.46-.03-1.32-2.08-1.32-2.05,0Z"/>
    <path class="st1" d="M51.96,14.42c-1.01-1.71-3.45.16-2.13,1.6,1.06,1.11,2.94-.25,2.13-1.6Z"/>
  </g>
  <path class="st1" d="M55.04,20.66c.38-2.83-2-2.59-2.07-1.18.04,3.84.2,7.68.27,11.53.03,1.32,2.08,1.32,2.05,0-.04-2.11-.11-4.24-.17-6.35.48-2.05,3.07-5.43,5.17-3.18,1.45,2.8.89,6.3.99,9.36-.02,1.32,2.02,1.32,2.05,0,.04-2.34.07-4.69-.26-7.01-.17-4.82-4.81-7.08-8.04-3.18h.01Z"/>
  <path class="st1" d="M70.27,31.6c1.55-3.92,3.09-7.83,4.64-11.75.48-1.23-1.5-1.76-1.98-.55-1.25,3.17-2.5,6.34-3.75,9.49-1.53-3.12-3.07-6.25-4.6-9.37-.58-1.19-2.35-.14-1.77,1.03,1.8,3.67,3.61,7.35,5.4,11.01"/>
  <path class="st1" d="M77.31,32.37c2.55,1.14,5.29.2,7.06-1.76.02.42.06.84.07,1.25.07,1.31,2.11,1.32,2.05,0-.19-3.72-.47-7.44-.76-11.14-.31-1.65-2.53-1.07-2.01.52-7.45-5.73-14.54,7.23-6.41,11.13h.01ZM76.08,24.55c2.63-5.59,10.15-1.24,7.34,3.95-3.02,4.91-9.41,1.14-7.34-3.95Z"/>
  <path class="st1" d="M89.9,31.93c2.45,1.34,5.18.62,7.12-1.13-.02.46-.03.91-.06,1.38-.07,1.32,1.99,1.32,2.05,0,.31-6.68.21-13.36.33-20.04.02-1.32-2.02-1.32-2.05,0-.06,3.07-.07,6.15-.09,9.23-6.9-6.36-15.1,6.06-7.3,10.57ZM89.42,23.89c3.29-5.24,10.21-.03,6.81,4.82-3.55,4.52-9.47-.04-6.81-4.82Z"/>
  <path class="st1" d="M103.6,32.67c2.5.82,5.75-.2,6.93-2.66.57-1.19-1.2-2.22-1.77-1.03-1.87,3.53-7.28,1.87-7.08-2.09,2.6.05,5.2.12,7.8.15.58,0,.98-.48,1.02-1.02.17-2.1-.63-4.39-2.44-5.59-7.52-4.06-12.09,9.82-4.46,12.24ZM102.02,24.66c1.22-3.72,6.04-4.11,6.41.31-2.16-.03-4.31-.09-6.48-.13.02-.05.03-.12.06-.18h.01Z"/>
  <path class="st1" d="M114.71,24.26c.19-2,2.11-4.1,3.75-1.97.63,1.15,2.4.13,1.77-1.03-1.41-2.61-5.52-2.4-6.72.3-.03-.65-.08-1.29-.11-1.94-.07-1.31-2.11-1.32-2.05,0,.21,4.12.52,8.25.86,12.37.11,1.3,2.14,1.32,2.05,0-.08-2.57.03-5.19.45-7.74h0Z"/>
  <rect class="st0" x="24.26" y="-21.4" width="6" height="27.13" transform="translate(35.09 19.42) rotate(-90)"/>
  <path class="st1" d="M24.74,35.5c-.27-.65-1.03-1.06-1.85-1.06-1.48,0-4.33-.01-4.78-.05-2.32-.18-5.57-1.17-6.06-2.66-.55-1.65-.5-3.47-.57-5.17-.07-1.49-.08-6-.08-7.49.03-2.13.09-4.27.16-6.4.06-1.94-3.55-1.93-3.61,0-.06,2.12-.16,4.25-.22,6.39-.01,2.79.04,8.58.4,11.32.27,2.05.89,4.29,3.08,5.52,0,0,1.22,1.14,5.82,1.38,3.01.16,4.96.15,5.94.12.71-.02,1.37-.33,1.69-.86.17-.29.26-.64.09-1.05Z"/>
</svg>